<?xml version="1.0" encoding="utf-8"?>
<!-- Generator: Adobe Illustrator 27.5.0, SVG Export Plug-In . SVG Version: 6.00 Build 0)  -->
<svg version="1.1" id="Layer_1" xmlns="http://www.w3.org/2000/svg" xmlns:xlink="http://www.w3.org/1999/xlink" x="0px" y="0px"
	 viewBox="0 0 228.4 129.1" style="enable-background:new 0 0 228.4 129.1;" xml:space="preserve">
<g>
	<path class="st0" d="M75.5,82.8h18.7c0.8,0,1.5,0.6,1.7,1.4c0.5,2.5,1.3,5.4,2.7,8.6c1.4,3.3,3.6,6,5.5,8.2c1,1.1,0.2,2.8-1.3,2.8
		c-8.4,0-16.8,0-25.2,0c-6.5,0-13,0-19.5,0c-3.5,0-6.5-2-6.5-6.5V66.2c0-5.4-5-11.4-15-11.4c-9,0-15,6-15,11.4v60.9
		c0,0.9-0.8,1.7-1.7,1.7H1.3c-0.9,0-1.7-0.8-1.7-1.7L-0.5,1.5c0-1,0.8-1.7,1.7-1.7h18.7c0.9,0,1.7,0.8,1.7,1.7V36
		c0,1.4,1,2.1,2.3,1.5c14-5.8,49.7-2.9,49.7,17.2v26.2C73.6,82,74.5,82.8,75.5,82.8z"/>
	<path class="st0" d="M150.8,39.8h-22.3c-0.9,0-1.5,0.7-1.5,1.5v30.6c-0.5,10.9,8.6,13.8,17.7,12.8c1.2-0.1,2.2,0.8,2.2,2v15.8
		c0,1-0.7,1.9-1.7,2c-22.7,3.8-42-6.3-41.6-31c0,0,0-24.9,0-32.2c0-1.1-0.9-2-2-2H91.2c-1.1,0-2-0.9-2-2V21c0-1.1,0.9-1.9,1.9-2
		c11.6-0.6,13-8.5,12.4-19.3h23.4V19l33.6-0.2c1.9,0,2.7,2.3,1.3,3.5c-1.5,1.3-3.2,3.1-5.1,5.4c-2.8,3.4-3.6,7.8-3.9,10.2
		C152.6,39.1,151.8,39.8,150.8,39.8z"/>
	<path class="st0" d="M195,107.9c-16.4,0.2-32-7.8-37.9-22.7c-0.4-1,0-2.1,1-2.6l13.7-6.5c1-0.5,2.1-0.1,2.6,0.9
		c5.2,9.9,18.3,16.7,28.2,10.9c3.8-2.8,3.5-9.2-1.1-11.2c-2.7-1.7-15.8-4.9-19.2-5.9c-18.3-4.2-27.8-23.5-17.6-39.2
		c14.8-20.2,53.4-15.6,62.8,7.9c0.4,1,0,2.1-1,2.6l-13.7,6.4c-1,0.5-2.2,0.1-2.6-0.9c-5.7-12.6-31.7-13.7-26,0.3
		c7.1,7.6,28.7,6.5,38.1,18c7,7.4,7.4,21.2,1.5,29.4C217.3,104.3,206.7,107.9,195,107.9z"/>
</g>
</svg>
